<mxfile host="app.diagrams.net" modified="2023-04-11T06:34:08.652Z" agent="Mozilla/5.0 (Macintosh; Intel Mac OS X 10_15_7) AppleWebKit/537.36 (KHTML, like Gecko) Chrome/111.0.0.0 Safari/537.36" etag="6G5rpUAad_fulo9wmRZ1" version="21.1.5" type="device">
  <diagram name="Page-1" id="or3pive4Uc9v-FOJlRqE">
    <mxGraphModel dx="1254" dy="663" grid="1" gridSize="10" guides="1" tooltips="1" connect="1" arrows="1" fold="1" page="1" pageScale="1" pageWidth="827" pageHeight="1169" math="0" shadow="0">
      <root>
        <mxCell id="0" />
        <mxCell id="1" parent="0" />
        <mxCell id="0f2lnr4qubu1IfBH857K-1" value="RootStackNavigator" style="swimlane;whiteSpace=wrap;html=1;" vertex="1" parent="1">
          <mxGeometry x="40" y="40" width="840" height="440" as="geometry" />
        </mxCell>
        <mxCell id="0f2lnr4qubu1IfBH857K-2" value="MainTabNavigator" style="swimlane;whiteSpace=wrap;html=1;" vertex="1" parent="0f2lnr4qubu1IfBH857K-1">
          <mxGeometry x="40" y="50" width="520" height="350" as="geometry" />
        </mxCell>
        <mxCell id="0f2lnr4qubu1IfBH857K-6" value="RunsStackNavigator" style="swimlane;whiteSpace=wrap;html=1;" vertex="1" parent="0f2lnr4qubu1IfBH857K-2">
          <mxGeometry x="40" y="50" width="200" height="260" as="geometry" />
        </mxCell>
        <mxCell id="0f2lnr4qubu1IfBH857K-11" value="RunList screen" style="rounded=0;whiteSpace=wrap;html=1;" vertex="1" parent="0f2lnr4qubu1IfBH857K-6">
          <mxGeometry x="40" y="60" width="120" height="60" as="geometry" />
        </mxCell>
        <mxCell id="0f2lnr4qubu1IfBH857K-12" value="RunDetail screen" style="rounded=0;whiteSpace=wrap;html=1;" vertex="1" parent="0f2lnr4qubu1IfBH857K-6">
          <mxGeometry x="40" y="140" width="120" height="60" as="geometry" />
        </mxCell>
        <mxCell id="0f2lnr4qubu1IfBH857K-10" value="SummaryStackNavigator" style="swimlane;whiteSpace=wrap;html=1;" vertex="1" parent="0f2lnr4qubu1IfBH857K-2">
          <mxGeometry x="280" y="50" width="200" height="260" as="geometry" />
        </mxCell>
        <mxCell id="0f2lnr4qubu1IfBH857K-13" value="Summary screen" style="rounded=0;whiteSpace=wrap;html=1;" vertex="1" parent="0f2lnr4qubu1IfBH857K-10">
          <mxGeometry x="40" y="60" width="120" height="60" as="geometry" />
        </mxCell>
        <mxCell id="0f2lnr4qubu1IfBH857K-15" value="Modals" style="swimlane;whiteSpace=wrap;html=1;" vertex="1" parent="0f2lnr4qubu1IfBH857K-1">
          <mxGeometry x="600" y="50" width="200" height="350" as="geometry" />
        </mxCell>
        <mxCell id="0f2lnr4qubu1IfBH857K-14" value="RunCreation modal" style="rounded=0;whiteSpace=wrap;html=1;" vertex="1" parent="0f2lnr4qubu1IfBH857K-15">
          <mxGeometry x="40" y="70" width="120" height="60" as="geometry" />
        </mxCell>
      </root>
    </mxGraphModel>
  </diagram>
</mxfile>
